<svg width="24" height="25" viewBox="0 0 24 25" fill="none" xmlns="http://www.w3.org/2000/svg">
<path fill-rule="evenodd" clip-rule="evenodd" d="M24 4.68478C23.1182 5.08637 22.1687 5.35795 21.1727 5.47929C22.1898 4.85524 22.9702 3.86572 23.3379 2.68695C22.3856 3.26478 21.3333 3.68514 20.2092 3.91049C19.3133 2.92963 18.0328 2.31714 16.6156 2.31714C13.8982 2.31714 11.6936 4.57788 11.6936 7.36589C11.6936 7.7617 11.7359 8.14596 11.8204 8.51577C7.72812 8.30486 4.10072 6.29691 1.67072 3.23877C1.2467 3.98705 1.00439 4.85524 1.00439 5.77976C1.00439 7.53057 1.87357 9.07626 3.19493 9.982C2.38916 9.95744 1.62845 9.72776 0.963547 9.35217V9.41428C0.963547 11.8614 2.66103 13.9025 4.91495 14.3648C4.5022 14.4833 4.06691 14.5425 3.61754 14.5425C3.30058 14.5425 2.99067 14.5122 2.69061 14.4529C3.31748 16.458 5.1347 17.9184 7.29001 17.9574C5.6052 19.3124 3.48089 20.12 1.17485 20.12C0.777597 20.12 0.384575 20.0968 0 20.0506C2.17926 21.4807 4.76844 22.3171 7.54781 22.3171C16.6057 22.3171 21.5573 14.6248 21.5573 7.95238C21.5573 7.73281 21.5531 7.51324 21.5446 7.298C22.5068 6.58583 23.3421 5.69742 24 4.68478Z" fill="white"/>
</svg>
